{
    "asset" : {
        "generator" : "Khronos glTF Blender I/O v1.7.33",
        "version" : "2.0"
    },
    "scene" : 0,
    "scenes" : [
        {
            "name" : "Scene",
            "nodes" : [
                0
            ]
        }
    ],
    "nodes" : [
        {
            "mesh" : 0,
            "name" : "House.002"
        }
    ],
    "materials" : [
        {
            "doubleSided" : true,
            "name" : "Colors",
            "pbrMetallicRoughness" : {
                "baseColorTexture" : {
                    "index" : 0
                },
                "metallicFactor" : 0,
                "roughnessFactor" : 0.5
            }
        }
    ],
    "meshes" : [
        {
            "name" : "Cube.001",
            "primitives" : [
                {
                    "attributes" : {
                        "POSITION" : 0,
                        "NORMAL" : 1,
                        "TEXCOORD_0" : 2
                    },
                    "indices" : 3,
                    "material" : 0
                }
            ]
        }
    ],
    "textures" : [
        {
            "sampler" : 0,
            "source" : 0
        }
    ],
    "images" : [
        {
            "bufferView" : 4,
            "mimeType" : "image/png",
            "name" : "ImphenziaPalette01-256-Gradient"
        }
    ],
    "accessors" : [
        {
            "bufferView" : 0,
            "componentType" : 5126,
            "count" : 23900,
            "max" : [
                1.6620149612426758,
                3.8264822959899902,
                2.0032575130462646
            ],
            "min" : [
                -1.927062749862671,
                -0.07190871238708496,
                -1.8919861316680908
            ],
            "type" : "VEC3"
        },
        {
            "bufferView" : 1,
            "componentType" : 5126,
            "count" : 23900,
            "type" : "VEC3"
        },
        {
            "bufferView" : 2,
            "componentType" : 5126,
            "count" : 23900,
            "type" : "VEC2"
        },
        {
            "bufferView" : 3,
            "componentType" : 5123,
            "count" : 33726,
            "type" : "SCALAR"
        }
    ],
    "bufferViews" : [
        {
            "buffer" : 0,
            "byteLength" : 286800,
            "byteOffset" : 0
        },
        {
            "buffer" : 0,
            "byteLength" : 286800,
            "byteOffset" : 286800
        },
        {
            "buffer" : 0,
            "byteLength" : 191200,
            "byteOffset" : 573600
        },
        {
            "buffer" : 0,
            "byteLength" : 67452,
            "byteOffset" : 764800
        },
        {
            "buffer" : 0,
            "byteLength" : 5034,
            "byteOffset" : 832252
        }
    ],
    "samplers" : [
        {
            "magFilter" : 9729,
            "minFilter" : 9987
        }
    ],
    "buffers" : [
        {
            "byteLength" : 837288,
            "uri" : "data:application/octet-stream;base64,"
        }
    ]
}
