<?xml version="1.0" encoding="UTF-8" standalone="no" ?>
<!DOCTYPE svg PUBLIC "-//W3C//DTD SVG 1.1//EN" "http://www.w3.org/Graphics/SVG/1.1/DTD/svg11.dtd">
<svg xmlns="http://www.w3.org/2000/svg" xmlns:xlink="http://www.w3.org/1999/xlink" version="1.1" width="1080" height="1080" viewBox="0 0 1080 1080" xml:space="preserve">
<desc>Created with Fabric.js 5.2.4</desc>
<defs>
</defs>
<rect x="0" y="0" width="100%" height="100%" fill="transparent"></rect>
<g transform="matrix(1 0 0 1 540 540)" id="9125c243-a320-4cf6-accd-4c0939a7e0fe"  >
<rect style="stroke: none; stroke-width: 1; stroke-dasharray: none; stroke-linecap: butt; stroke-dashoffset: 0; stroke-linejoin: miter; stroke-miterlimit: 4; fill: rgb(255,255,255); fill-rule: nonzero; opacity: 1; visibility: hidden;" vector-effect="non-scaling-stroke"  x="-540" y="-540" rx="0" ry="0" width="1080" height="1080" />
</g>
<g transform="matrix(1 0 0 1 540 540)" id="08fd2e54-f35f-4aaa-88f5-824150e56000"  >
</g>
<g transform="matrix(18.09 0 0 18.09 277.5 540.55)"  >
<path style="stroke: none; stroke-width: 1; stroke-dasharray: none; stroke-linecap: butt; stroke-dashoffset: 0; stroke-linejoin: miter; stroke-miterlimit: 4; fill: rgb(54,77,90); fill-rule: nonzero; opacity: 1;" vector-effect="non-scaling-stroke"  transform=" translate(-15.21, -29.93)" d="M 0 0 L 0 59.8571429 L 3.85714286 59.8571429 L 30.4285714 0 L 0 0 Z M 2.42857143 24.7142857 C 5 24.8571429 10.1428571 25.2857143 15.8571429 27.1428571 C 14.8571429 29.2857143 3 56.1428571 2.42857143 57.4285714 C 2.42857143 56.1428571 2.42857143 40.5714286 2.42857143 24.7142857 Z M 26.7142857 2.42857143 C 25.4285714 5.14285714 17.4285714 23.2857143 16.7142857 25 C 10.7142857 22.8571429 5.28571429 22.4285714 2.28571429 22.4285714 C 2.28571429 13.1428571 2.28571429 3.28571429 2.28571429 2.42857143 C 4.42857143 2.42857143 23.8571429 2.42857143 26.7142857 2.42857143 Z" stroke-linecap="round" />
</g>
<g transform="matrix(18.09 0 0 18.09 431.15 348.07)"  >
<path style="stroke: none; stroke-width: 1; stroke-dasharray: none; stroke-linecap: butt; stroke-dashoffset: 0; stroke-linejoin: miter; stroke-miterlimit: 4; fill: rgb(54,77,90); fill-rule: nonzero; opacity: 1;" vector-effect="non-scaling-stroke"  transform=" translate(-23.71, -19.29)" d="M 27.7142857 0 L 15.7142857 27.1428571 L 16.8571429 27.5714286 C 22 29.5714286 26.2857143 32.4285714 29.5714286 36.1428571 L 31.7142857 38.5714286 L 31.7142857 0 L 27.7142857 0 Z M 29.4285714 2.42857143 C 29.4285714 4.42857143 29.4285714 28 29.4285714 32.5714286 C 26.5714286 29.8571429 23 27.5714286 19 26 C 19.8571429 24 28.7142857 3.57142857 29.4285714 2.42857143 C 29.2857143 2.42857143 29.2857143 2.42857143 29.4285714 2.42857143 Z" stroke-linecap="round" />
</g>
<g transform="matrix(18.09 0 0 18.09 300.65 766.61)"  >
<path style="stroke: none; stroke-width: 1; stroke-dasharray: none; stroke-linecap: butt; stroke-dashoffset: 0; stroke-linejoin: miter; stroke-miterlimit: 4; fill: rgb(54,77,90); fill-rule: nonzero; opacity: 1;" vector-effect="non-scaling-stroke"  transform=" translate(-16.5, -42.43)" d="M 1.28571429 59.8571429 L 31.7142857 59.8571429 L 31.7142857 34.8571429 L 31.4285714 34.5714286 C 27.8571429 30.5714286 23.2857143 27.4285714 17.7142857 25.4285714 L 16.7142857 25 L 1.28571429 59.8571429 Z M 18 28 C 22.5714286 29.8571429 26.4285714 32.4285714 29.4285714 35.8571429 C 29.4285714 36.4285714 29.4285714 55.4285714 29.4285714 57.5714286 C 27.4285714 57.5714286 8 57.5714286 5 57.5714286 C 6.14285714 54.7142857 17.1428571 30 18 28 Z" stroke-linecap="round" />
</g>
<g transform="matrix(18.09 0 0 18.09 626.13 831.15)"  >
<path style="stroke: none; stroke-width: 1; stroke-dasharray: none; stroke-linecap: butt; stroke-dashoffset: 0; stroke-linejoin: miter; stroke-miterlimit: 4; fill: rgb(54,77,90); fill-rule: nonzero; opacity: 1;" vector-effect="non-scaling-stroke"  transform=" translate(-34.5, -46)" d="M 29.4285714 59.8571429 L 39.5714286 59.8571429 L 39.5714286 58.7142857 C 39.5714286 48.7142857 36.8571429 40.7142857 31.5714286 34.5714286 L 29.4285714 32.1428571 L 29.4285714 59.8571429 Z M 31.7142857 39 C 35 44 36.8571429 50.1428571 37 57.4285714 C 35.5714286 57.4285714 33 57.4285714 31.7142857 57.4285714 C 31.7142857 55.5714286 31.7142857 41.5714286 31.7142857 39 Z" stroke-linecap="round" />
</g>
<g transform="matrix(18.09 0 0 18.09 809.57 539.26)"  >
<path style="stroke: none; stroke-width: 1; stroke-dasharray: none; stroke-linecap: butt; stroke-dashoffset: 0; stroke-linejoin: miter; stroke-miterlimit: 4; fill: rgb(54,77,90); fill-rule: nonzero; opacity: 1;" vector-effect="non-scaling-stroke"  transform=" translate(-44.64, -29.86)" d="M 29.4285714 0 L 29.4285714 35.7142857 L 29.7142857 36 C 34.7142857 41.7142857 37.1428571 49.2857143 37.1428571 58.5714286 L 37.1428571 59.7142857 L 59.8571429 59.7142857 L 59.8571429 0 L 29.4285714 0 Z M 57.5714286 2.42857143 C 57.5714286 4.71428571 57.5714286 55.4285714 57.5714286 57.5714286 C 55.5714286 57.5714286 41.4285714 57.5714286 39.4285714 57.5714286 C 39.2857143 48.4285714 36.5714286 40.7142857 31.7142857 35 C 31.7142857 34.2857143 31.7142857 4.57142857 31.7142857 2.42857143 C 33.8571429 2.42857143 55.4285714 2.42857143 57.5714286 2.42857143 Z" stroke-linecap="round" />
</g>
</svg>