{
    "asset" : {
        "generator" : "Khronos glTF Blender I/O v1.7.33",
        "version" : "2.0"
    },
    "scene" : 0,
    "scenes" : [
        {
            "name" : "Scene",
            "nodes" : [
                0,
                1,
                2
            ]
        }
    ],
    "nodes" : [
        {
            "mesh" : 0,
            "name" : "Grip",
            "rotation" : [
                -0.5137141346931458,
                -0.4858994483947754,
                0.5137137770652771,
                -0.48589903116226196
            ],
            "scale" : [
                0.3789491355419159,
                0.3789491355419159,
                0.3789491355419159
            ],
            "translation" : [
                -1.8403160572052002,
                0.37566491961479187,
                0.008441793732345104
            ]
        },
        {
            "mesh" : 1,
            "name" : "Blade",
            "rotation" : [
                0,
                0,
                -0.7265011072158813,
                0.6871653199195862
            ],
            "scale" : [
                -0.06769278645515442,
                0.6617444753646851,
                0.7265828251838684
            ],
            "translation" : [
                1.893448829650879,
                0.16834229230880737,
                0.021718904376029968
            ]
        },
        {
            "mesh" : 2,
            "name" : "Guard.002",
            "rotation" : [
                0.5137141346931458,
                0.4858994781970978,
                -0.5137137770652771,
                0.48589903116226196
            ],
            "scale" : [
                -0.6117691397666931,
                -0.6117691397666931,
                0.2478531152009964
            ],
            "translation" : [
                -0.05275841802358627,
                0.2761085331439972,
                -0.03605902940034866
            ]
        }
    ],
    "materials" : [
        {
            "doubleSided" : true,
            "name" : "Green_Plastic_Ripple",
            "normalTexture" : {
                "index" : 0
            },
            "pbrMetallicRoughness" : {
                "baseColorFactor" : [
                    0.06983783841133118,
                    0.06571990996599197,
                    0.027910562232136726,
                    1
                ],
                "metallicFactor" : 0,
                "roughnessFactor" : 0.75
            }
        },
        {
            "doubleSided" : true,
            "name" : "Green_Plastic_Smooth",
            "pbrMetallicRoughness" : {
                "baseColorFactor" : [
                    0.06983800232410431,
                    0.06571999937295914,
                    0.027910999953746796,
                    1
                ],
                "metallicFactor" : 0,
                "roughnessFactor" : 0.75
            }
        },
        {
            "doubleSided" : true,
            "name" : "Metal_Black_Stripes_Horizontal",
            "pbrMetallicRoughness" : {
                "baseColorFactor" : [
                    0.0399063341319561,
                    0.0399063341319561,
                    0.0399063341319561,
                    1
                ],
                "roughnessFactor" : 0.33000001311302185
            }
        },
        {
            "doubleSided" : true,
            "name" : "Light_Metal",
            "pbrMetallicRoughness" : {
                "baseColorFactor" : [
                    0.44408029317855835,
                    0.44408029317855835,
                    0.44408029317855835,
                    1
                ],
                "roughnessFactor" : 0.33000001311302185
            }
        },
        {
            "doubleSided" : true,
            "name" : "Metal_Black_Smooth",
            "pbrMetallicRoughness" : {
                "baseColorFactor" : [
                    0.0399063341319561,
                    0.0399063341319561,
                    0.0399063341319561,
                    1
                ],
                "roughnessFactor" : 0.33000001311302185
            }
        },
        {
            "doubleSided" : true,
            "name" : "Metal_Black",
            "pbrMetallicRoughness" : {
                "baseColorFactor" : [
                    0.0399063341319561,
                    0.0399063341319561,
                    0.0399063341319561,
                    1
                ],
                "roughnessFactor" : 0.33000001311302185
            }
        }
    ],
    "meshes" : [
        {
            "name" : "Cylinder",
            "primitives" : [
                {
                    "attributes" : {
                        "POSITION" : 0,
                        "NORMAL" : 1,
                        "TEXCOORD_0" : 2
                    },
                    "indices" : 3,
                    "material" : 0
                },
                {
                    "attributes" : {
                        "POSITION" : 4,
                        "NORMAL" : 5,
                        "TEXCOORD_0" : 6
                    },
                    "indices" : 7,
                    "material" : 1
                }
            ]
        },
        {
            "name" : "Cube.001",
            "primitives" : [
                {
                    "attributes" : {
                        "POSITION" : 8,
                        "NORMAL" : 9,
                        "TEXCOORD_0" : 10
                    },
                    "indices" : 11,
                    "material" : 2
                },
                {
                    "attributes" : {
                        "POSITION" : 12,
                        "NORMAL" : 13,
                        "TEXCOORD_0" : 14
                    },
                    "indices" : 15,
                    "material" : 3
                },
                {
                    "attributes" : {
                        "POSITION" : 16,
                        "NORMAL" : 17,
                        "TEXCOORD_0" : 18
                    },
                    "indices" : 19,
                    "material" : 2
                },
                {
                    "attributes" : {
                        "POSITION" : 20,
                        "NORMAL" : 21,
                        "TEXCOORD_0" : 22
                    },
                    "indices" : 23,
                    "material" : 4
                }
            ]
        },
        {
            "name" : "Cube.004",
            "primitives" : [
                {
                    "attributes" : {
                        "POSITION" : 24,
                        "NORMAL" : 25,
                        "TEXCOORD_0" : 26
                    },
                    "indices" : 27,
                    "material" : 5
                }
            ]
        }
    ],
    "textures" : [
        {
            "sampler" : 0,
            "source" : 0
        }
    ],
    "images" : [
        {
            "bufferView" : 4,
            "mimeType" : "image/png",
            "name" : "Green_Plastic_Ripple_Normal"
        }
    ],
    "accessors" : [
        {
            "bufferView" : 0,
            "componentType" : 5126,
            "count" : 4214,
            "max" : [
                1.132834553718567,
                4.473076343536377,
                1.1363539695739746
            ],
            "min" : [
                -1.131934404373169,
                -3.978224277496338,
                -1.1363539695739746
            ],
            "type" : "VEC3"
        },
        {
            "bufferView" : 1,
            "componentType" : 5126,
            "count" : 4214,
            "type" : "VEC3"
        },
        {
            "bufferView" : 2,
            "componentType" : 5126,
            "count" : 4214,
            "type" : "VEC2"
        },
        {
            "bufferView" : 3,
            "componentType" : 5123,
            "count" : 16818,
            "type" : "SCALAR"
        },
        {
            "bufferView" : 5,
            "componentType" : 5126,
            "count" : 2790,
            "max" : [
                1.1516811847686768,
                4.43704080581665,
                1.0682642459869385
            ],
            "min" : [
                -1.149436354637146,
                -4.204761028289795,
                -1.068264126777649
            ],
            "type" : "VEC3"
        },
        {
            "bufferView" : 6,
            "componentType" : 5126,
            "count" : 2790,
            "type" : "VEC3"
        },
        {
            "bufferView" : 7,
            "componentType" : 5126,
            "count" : 2790,
            "type" : "VEC2"
        },
        {
            "bufferView" : 8,
            "componentType" : 5123,
            "count" : 7776,
            "type" : "SCALAR"
        },
        {
            "bufferView" : 9,
            "componentType" : 5126,
            "count" : 598,
            "max" : [
                1.0092288255691528,
                3.008342742919922,
                0.35126060247421265
            ],
            "min" : [
                -1.0092288255691528,
                -3.008342742919922,
                -0.35126060247421265
            ],
            "type" : "VEC3"
        },
        {
            "bufferView" : 10,
            "componentType" : 5126,
            "count" : 598,
            "type" : "VEC3"
        },
        {
            "bufferView" : 11,
            "componentType" : 5126,
            "count" : 598,
            "type" : "VEC2"
        },
        {
            "bufferView" : 12,
            "componentType" : 5123,
            "count" : 1305,
            "type" : "SCALAR"
        },
        {
            "bufferView" : 13,
            "componentType" : 5126,
            "count" : 202,
            "max" : [
                0.047938406467437744,
                3.008342742919922,
                0.08789932727813721
            ],
            "min" : [
                -0.06639605760574341,
                -2.138683319091797,
                -0.35126060247421265
            ],
            "type" : "VEC3"
        },
        {
            "bufferView" : 14,
            "componentType" : 5126,
            "count" : 202,
            "type" : "VEC3"
        },
        {
            "bufferView" : 15,
            "componentType" : 5126,
            "count" : 202,
            "type" : "VEC2"
        },
        {
            "bufferView" : 16,
            "componentType" : 5123,
            "count" : 612,
            "type" : "SCALAR"
        },
        {
            "bufferView" : 17,
            "componentType" : 5126,
            "count" : 218,
            "max" : [
                0.9907711744308472,
                3.008342742919922,
                0.35126060247421265
            ],
            "min" : [
                -1.0092288255691528,
                -3.008342742919922,
                -0.35126060247421265
            ],
            "type" : "VEC3"
        },
        {
            "bufferView" : 18,
            "componentType" : 5126,
            "count" : 218,
            "type" : "VEC3"
        },
        {
            "bufferView" : 19,
            "componentType" : 5126,
            "count" : 218,
            "type" : "VEC2"
        },
        {
            "bufferView" : 20,
            "componentType" : 5123,
            "count" : 537,
            "type" : "SCALAR"
        },
        {
            "bufferView" : 21,
            "componentType" : 5126,
            "count" : 15,
            "max" : [
                0.9907711744308472,
                -2.3167216777801514,
                0.35126060247421265
            ],
            "min" : [
                0.7549999356269836,
                -3.008342742919922,
                -0.320943146944046
            ],
            "type" : "VEC3"
        },
        {
            "bufferView" : 22,
            "componentType" : 5126,
            "count" : 15,
            "type" : "VEC3"
        },
        {
            "bufferView" : 23,
            "componentType" : 5126,
            "count" : 15,
            "type" : "VEC2"
        },
        {
            "bufferView" : 24,
            "componentType" : 5123,
            "count" : 36,
            "type" : "SCALAR"
        },
        {
            "bufferView" : 25,
            "componentType" : 5126,
            "count" : 640,
            "max" : [
                0.9364719390869141,
                0.18128013610839844,
                1
            ],
            "min" : [
                -0.9364719390869141,
                -0.18128013610839844,
                -1
            ],
            "type" : "VEC3"
        },
        {
            "bufferView" : 26,
            "componentType" : 5126,
            "count" : 640,
            "type" : "VEC3"
        },
        {
            "bufferView" : 27,
            "componentType" : 5126,
            "count" : 640,
            "type" : "VEC2"
        },
        {
            "bufferView" : 28,
            "componentType" : 5123,
            "count" : 2652,
            "type" : "SCALAR"
        }
    ],
    "bufferViews" : [
        {
            "buffer" : 0,
            "byteLength" : 50568,
            "byteOffset" : 0
        },
        {
            "buffer" : 0,
            "byteLength" : 50568,
            "byteOffset" : 50568
        },
        {
            "buffer" : 0,
            "byteLength" : 33712,
            "byteOffset" : 101136
        },
        {
            "buffer" : 0,
            "byteLength" : 33636,
            "byteOffset" : 134848
        },
        {
            "buffer" : 0,
            "byteLength" : 2344433,
            "byteOffset" : 168484
        },
        {
            "buffer" : 0,
            "byteLength" : 33480,
            "byteOffset" : 2512920
        },
        {
            "buffer" : 0,
            "byteLength" : 33480,
            "byteOffset" : 2546400
        },
        {
            "buffer" : 0,
            "byteLength" : 22320,
            "byteOffset" : 2579880
        },
        {
            "buffer" : 0,
            "byteLength" : 15552,
            "byteOffset" : 2602200
        },
        {
            "buffer" : 0,
            "byteLength" : 7176,
            "byteOffset" : 2617752
        },
        {
            "buffer" : 0,
            "byteLength" : 7176,
            "byteOffset" : 2624928
        },
        {
            "buffer" : 0,
            "byteLength" : 4784,
            "byteOffset" : 2632104
        },
        {
            "buffer" : 0,
            "byteLength" : 2610,
            "byteOffset" : 2636888
        },
        {
            "buffer" : 0,
            "byteLength" : 2424,
            "byteOffset" : 2639500
        },
        {
            "buffer" : 0,
            "byteLength" : 2424,
            "byteOffset" : 2641924
        },
        {
            "buffer" : 0,
            "byteLength" : 1616,
            "byteOffset" : 2644348
        },
        {
            "buffer" : 0,
            "byteLength" : 1224,
            "byteOffset" : 2645964
        },
        {
            "buffer" : 0,
            "byteLength" : 2616,
            "byteOffset" : 2647188
        },
        {
            "buffer" : 0,
            "byteLength" : 2616,
            "byteOffset" : 2649804
        },
        {
            "buffer" : 0,
            "byteLength" : 1744,
            "byteOffset" : 2652420
        },
        {
            "buffer" : 0,
            "byteLength" : 1074,
            "byteOffset" : 2654164
        },
        {
            "buffer" : 0,
            "byteLength" : 180,
            "byteOffset" : 2655240
        },
        {
            "buffer" : 0,
            "byteLength" : 180,
            "byteOffset" : 2655420
        },
        {
            "buffer" : 0,
            "byteLength" : 120,
            "byteOffset" : 2655600
        },
        {
            "buffer" : 0,
            "byteLength" : 72,
            "byteOffset" : 2655720
        },
        {
            "buffer" : 0,
            "byteLength" : 7680,
            "byteOffset" : 2655792
        },
        {
            "buffer" : 0,
            "byteLength" : 7680,
            "byteOffset" : 2663472
        },
        {
            "buffer" : 0,
            "byteLength" : 5120,
            "byteOffset" : 2671152
        },
        {
            "buffer" : 0,
            "byteLength" : 5304,
            "byteOffset" : 2676272
        }
    ],
    "samplers" : [
        {
            "magFilter" : 9729,
            "minFilter" : 9987
        }
    ],
    "buffers" : [
        {
            "byteLength" : 2681576,
            "uri" : "data:application/octet-stream;base64,"
        }
    ]
}
