{
    "asset" : {
        "generator" : "Khronos glTF Blender I/O v1.7.33",
        "version" : "2.0"
    },
    "scene" : 0,
    "scenes" : [
        {
            "name" : "Scene",
            "nodes" : [
                0
            ]
        }
    ],
    "nodes" : [
        {
            "mesh" : 0,
            "name" : "Swiss_Knife"
        }
    ],
    "materials" : [
        {
            "doubleSided" : true,
            "name" : "Knife_Metal",
            "normalTexture" : {
                "index" : 0
            },
            "pbrMetallicRoughness" : {
                "baseColorTexture" : {
                    "index" : 1
                },
                "metallicRoughnessTexture" : {
                    "index" : 2
                }
            }
        },
        {
            "doubleSided" : true,
            "name" : "Knife_Red",
            "normalTexture" : {
                "index" : 3
            },
            "pbrMetallicRoughness" : {
                "baseColorTexture" : {
                    "index" : 4
                },
                "metallicFactor" : 0,
                "metallicRoughnessTexture" : {
                    "index" : 5
                }
            }
        },
        {
            "doubleSided" : true,
            "name" : "Black_Plastic",
            "pbrMetallicRoughness" : {
                "baseColorTexture" : {
                    "index" : 6
                },
                "metallicFactor" : 0
            }
        }
    ],
    "meshes" : [
        {
            "name" : "Cube.030",
            "primitives" : [
                {
                    "attributes" : {
                        "POSITION" : 0,
                        "NORMAL" : 1,
                        "TEXCOORD_0" : 2
                    },
                    "indices" : 3,
                    "material" : 0
                },
                {
                    "attributes" : {
                        "POSITION" : 4,
                        "NORMAL" : 5,
                        "TEXCOORD_0" : 6
                    },
                    "indices" : 7,
                    "material" : 1
                },
                {
                    "attributes" : {
                        "POSITION" : 8,
                        "NORMAL" : 9,
                        "TEXCOORD_0" : 10
                    },
                    "indices" : 11,
                    "material" : 2
                },
                {
                    "attributes" : {
                        "POSITION" : 12,
                        "NORMAL" : 13,
                        "TEXCOORD_0" : 14
                    },
                    "indices" : 15,
                    "material" : 2
                }
            ]
        }
    ],
    "textures" : [
        {
            "sampler" : 0,
            "source" : 0
        },
        {
            "sampler" : 0,
            "source" : 1
        },
        {
            "sampler" : 0,
            "source" : 2
        },
        {
            "sampler" : 0,
            "source" : 3
        },
        {
            "sampler" : 0,
            "source" : 4
        },
        {
            "sampler" : 0,
            "source" : 5
        },
        {
            "sampler" : 0,
            "source" : 6
        }
    ],
    "images" : [
        {
            "bufferView" : 4,
            "mimeType" : "image/png",
            "name" : "Knife_Metal_Normal"
        },
        {
            "bufferView" : 5,
            "mimeType" : "image/png",
            "name" : "Knife_Metal_Diffuse"
        },
        {
            "bufferView" : 6,
            "mimeType" : "image/png",
            "name" : "Knife_Metal_Roughness"
        },
        {
            "bufferView" : 11,
            "mimeType" : "image/png",
            "name" : "Knife_Red_Normal"
        },
        {
            "bufferView" : 12,
            "mimeType" : "image/png",
            "name" : "Knife_Red_Diffuse"
        },
        {
            "bufferView" : 13,
            "mimeType" : "image/png",
            "name" : "Knife_Red_Roughness"
        },
        {
            "bufferView" : 18,
            "mimeType" : "image/png",
            "name" : "Black_Plastic_Diffuse"
        }
    ],
    "accessors" : [
        {
            "bufferView" : 0,
            "componentType" : 5126,
            "count" : 9578,
            "max" : [
                3.645937204360962,
                0.5164164900779724,
                1.8182724714279175
            ],
            "min" : [
                -2.7259631156921387,
                0.059470582753419876,
                -0.7891775369644165
            ],
            "type" : "VEC3"
        },
        {
            "bufferView" : 1,
            "componentType" : 5126,
            "count" : 9578,
            "type" : "VEC3"
        },
        {
            "bufferView" : 2,
            "componentType" : 5126,
            "count" : 9578,
            "type" : "VEC2"
        },
        {
            "bufferView" : 3,
            "componentType" : 5123,
            "count" : 34740,
            "type" : "SCALAR"
        },
        {
            "bufferView" : 7,
            "componentType" : 5126,
            "count" : 4017,
            "max" : [
                1.4973034858703613,
                0.5134230256080627,
                0.914177656173706
            ],
            "min" : [
                -2.551737070083618,
                0.01212138868868351,
                -0.32880890369415283
            ],
            "type" : "VEC3"
        },
        {
            "bufferView" : 8,
            "componentType" : 5126,
            "count" : 4017,
            "type" : "VEC3"
        },
        {
            "bufferView" : 9,
            "componentType" : 5126,
            "count" : 4017,
            "type" : "VEC2"
        },
        {
            "bufferView" : 10,
            "componentType" : 5123,
            "count" : 17292,
            "type" : "SCALAR"
        },
        {
            "bufferView" : 14,
            "componentType" : 5126,
            "count" : 233,
            "max" : [
                -2.485198974609375,
                0.23837506771087646,
                1.087691307067871
            ],
            "min" : [
                -2.7816362380981445,
                0.02106942981481552,
                0.8368004560470581
            ],
            "type" : "VEC3"
        },
        {
            "bufferView" : 15,
            "componentType" : 5126,
            "count" : 233,
            "type" : "VEC3"
        },
        {
            "bufferView" : 16,
            "componentType" : 5126,
            "count" : 233,
            "type" : "VEC2"
        },
        {
            "bufferView" : 17,
            "componentType" : 5123,
            "count" : 954,
            "type" : "SCALAR"
        },
        {
            "bufferView" : 19,
            "componentType" : 5126,
            "count" : 688,
            "max" : [
                -2.490922212600708,
                0.25339576601982117,
                1.0991809368133545
            ],
            "min" : [
                -2.7988293170928955,
                0.00804316345602274,
                0.8399791121482849
            ],
            "type" : "VEC3"
        },
        {
            "bufferView" : 20,
            "componentType" : 5126,
            "count" : 688,
            "type" : "VEC3"
        },
        {
            "bufferView" : 21,
            "componentType" : 5126,
            "count" : 688,
            "type" : "VEC2"
        },
        {
            "bufferView" : 22,
            "componentType" : 5123,
            "count" : 3048,
            "type" : "SCALAR"
        }
    ],
    "bufferViews" : [
        {
            "buffer" : 0,
            "byteLength" : 114936,
            "byteOffset" : 0
        },
        {
            "buffer" : 0,
            "byteLength" : 114936,
            "byteOffset" : 114936
        },
        {
            "buffer" : 0,
            "byteLength" : 76624,
            "byteOffset" : 229872
        },
        {
            "buffer" : 0,
            "byteLength" : 69480,
            "byteOffset" : 306496
        },
        {
            "buffer" : 0,
            "byteLength" : 478580,
            "byteOffset" : 375976
        },
        {
            "buffer" : 0,
            "byteLength" : 314208,
            "byteOffset" : 854556
        },
        {
            "buffer" : 0,
            "byteLength" : 29522,
            "byteOffset" : 1168764
        },
        {
            "buffer" : 0,
            "byteLength" : 48204,
            "byteOffset" : 1198288
        },
        {
            "buffer" : 0,
            "byteLength" : 48204,
            "byteOffset" : 1246492
        },
        {
            "buffer" : 0,
            "byteLength" : 32136,
            "byteOffset" : 1294696
        },
        {
            "buffer" : 0,
            "byteLength" : 34584,
            "byteOffset" : 1326832
        },
        {
            "buffer" : 0,
            "byteLength" : 341343,
            "byteOffset" : 1361416
        },
        {
            "buffer" : 0,
            "byteLength" : 273238,
            "byteOffset" : 1702760
        },
        {
            "buffer" : 0,
            "byteLength" : 28313,
            "byteOffset" : 1976000
        },
        {
            "buffer" : 0,
            "byteLength" : 2796,
            "byteOffset" : 2004316
        },
        {
            "buffer" : 0,
            "byteLength" : 2796,
            "byteOffset" : 2007112
        },
        {
            "buffer" : 0,
            "byteLength" : 1864,
            "byteOffset" : 2009908
        },
        {
            "buffer" : 0,
            "byteLength" : 1908,
            "byteOffset" : 2011772
        },
        {
            "buffer" : 0,
            "byteLength" : 20566,
            "byteOffset" : 2013680
        },
        {
            "buffer" : 0,
            "byteLength" : 8256,
            "byteOffset" : 2034248
        },
        {
            "buffer" : 0,
            "byteLength" : 8256,
            "byteOffset" : 2042504
        },
        {
            "buffer" : 0,
            "byteLength" : 5504,
            "byteOffset" : 2050760
        },
        {
            "buffer" : 0,
            "byteLength" : 6096,
            "byteOffset" : 2056264
        }
    ],
    "samplers" : [
        {
            "magFilter" : 9729,
            "minFilter" : 9987
        }
    ],
    "buffers" : [
        {
            "byteLength" : 2062360,
            "uri" : "data:application/octet-stream;base64,"
        }
    ]
}
